#!OML:ASF I:\golf\golf\golf 2\Subject 1\2002-09-07\Subject1.ASF
:FULLY-SPECIFIED
:DEGREES
228
root -6.08281 17.9268 0.076554 -82.2327 86.0421 -101.591
lowerback 3.27712 -10.172 -0.68429
upperback 4.71146 -13.5611 5.55816
thorax 4.65654 -6.89608 5.89865
lowerneck -13.4963 9.88922 6.05761
upperneck 22.9199 16.6162 -14.258
head 11.4923 6.68175 -3.67733
rclavicle -1.95604e-013 1.145e-013
rhumerus 4.96702 -15.8016 -80.8533
rradius 83.2251
rwrist -40.4448
rhand -59.2654 5.15005
rfingers 7.12502
rthumb -31.4523 -22.1642
lclavicle -1.95604e-013 1.145e-013
lhumerus 58.0166 -58.7797 81.981
lradius 19.4729
lwrist -3.82557
lhand -4.84131 27.0957
lfingers 7.12502
lthumb -159.054 -124.015
rfemur -34.0226 2.84026 10.7087
rtibia 32.7236
rfoot -7.41532 -13.7628
rtoes -10.8323
lfemur -32.463 12.8376 -11.3348
ltibia 29.1445
lfoot -10.5663 -3.39524
ltoes -18.1083
229
root -6.08036 17.9423 -0.0034197 -114.878 85.3308 -133.869
lowerback 2.66881 -10.1315 -0.00890081
upperback 4.92633 -13.5192 5.99066
thorax 5.17322 -6.84955 5.86588
lowerneck -13.99 8.96673 5.54661
upperneck 23.6489 15.4952 -14.0427
head 11.6641 6.1131 -3.70299
rclavicle 4.96962e-015 7.55382e-015
rhumerus 3.33446 -14.4391 -81.3392
rradius 81.4978
rwrist -41.8432
rhand -58.1194 3.20729
rfingers 7.12502
rthumb -30.3597 -24.3142
lclavicle 4.96962e-015 7.55382e-015
lhumerus 54.2564 -58.4879 84.1251
lradius 18.8647
lwrist -4.06192
lhand -5.27948 28.1711
lfingers 7.12502
lthumb -159.475 -122.894
rfemur -32.9711 2.53823 9.96387
rtibia 33.0371
rfoot -7.74084 -15.0813
rtoes -8.34386
lfemur -32.4008 11.7438 -11.8487
ltibia 28.4974
lfoot -10.3719 -5.13976
ltoes -18.6129
230
root -6.0725 17.9663 -0.0827529 -133.765 83.5451 -152.387
lowerback 1.94303 -10.0088 0.866459
upperback 5.04875 -13.3811 6.43398
thorax 5.60434 -6.73757 5.74062
lowerneck -14.1741 7.92213 5.18968
upperneck 24.2963 14.1926 -13.9443
head 11.7536 5.48835 -3.83796
rclavicle -5.03919e-014 1.11319e-014
rhumerus 1.58008 -13.3209 -81.9892
rradius 79.5268
rwrist -43.0897
rhand -59.055 2.7484
rfingers 7.12502
rthumb -31.2518 -24.6048
lclavicle -5.03919e-014 1.11319e-014
lhumerus 49.4793 -58.0199 87.1688
lradius 18.4705
lwrist -4.82109
lhand -5.5968 29.6352
lfingers 7.12502
lthumb -159.78 -121.397
rfemur -31.897 2.28864 9.39669
rtibia 33.3978
rfoot -8.10803 -16.3624
rtoes -5.14524
lfemur -32.2854 10.6876 -12.2224
ltibia 27.7974
lfoot -10.0202 -6.99479
ltoes -17.8647
231
root -6.06637 17.9912 -0.15451 -143.787 81.3691 -162.054
lowerback 1.23935 -9.78863 1.40681
upperback 5.11033 -13.1279 7.07442
thorax 6.08113 -6.58753 6.01294
lowerneck -14.291 6.80255 4.88911
upperneck 24.8599 12.8247 -14.0641
head 11.8193 4.82724 -4.07252
rclavicle -9.30312e-014 6.97734e-014
rhumerus -0.123732 -11.9071 -82.5455
rradius 77.441
rwrist -45.5156
rhand -59.2454 6.10722
rfingers 7.12502
rthumb -31.4332 -21.2108
lclavicle -9.30312e-014 6.97734e-014
lhumerus 43.9774 -56.9598 91.2589
lradius 18.0525
lwrist -6.53125
lhand -5.66753 31.2473
lfingers 7.12502
lthumb -159.848 -119.778
rfemur -30.8755 2.10916 8.94575
rtibia 33.8176
rfoot -7.16458 -17.8561
rtoes -9.14154
lfemur -32.1217 9.77781 -12.6087
ltibia 26.9705
lfoot -9.47877 -8.88656
ltoes -16.9337
232
root -6.06258 18.0104 -0.218349 -150.423 79.1608 -168.223
lowerback 0.723887 -9.60605 1.68906
upperback 5.11755 -12.9147 7.72799
thorax 6.46336 -6.47154 6.47787
lowerneck -14.3854 5.75085 4.48099
upperneck 25.3937 11.601 -14.2407
head 11.8873 4.2189 -4.28352
rclavicle -3.12092e-014 -9.93923e-015
rhumerus -1.65959 -10.6004 -83.374
rradius 75.4031
rwrist -47.3136
rhand -58.1851 6.20547
rfingers 7.12502
rthumb -30.4224 -21.3045
lclavicle -3.12092e-014 -9.93923e-015
lhumerus 39.7429 -56.0335 93.6355
lradius 17.7791
lwrist -7.54972
lhand -4.30951 34.5262
lfingers 7.12502
lthumb -158.543 -116.642
rfemur -29.79 1.99016 8.42576
rtibia 34.2844
rfoot -5.97079 -19.2306
rtoes -12.8181
lfemur -31.6907 8.94622 -13.1498
ltibia 26.0026
lfoot -9.0191 -10.6461
ltoes -17.1893
233
root -6.05324 18.0304 -0.282149 -155.448 77.0383 -172.723
lowerback 0.148471 -9.44724 1.98686
upperback 5.06262 -12.7362 8.24018
thorax 6.77547 -6.36629 6.78751
lowerneck -14.1332 4.72259 4.02141
upperneck 25.7875 10.3964 -14.3863
head 11.8282 3.64025 -4.46807
rclavicle -6.32135e-014 1.35174e-014
rhumerus -3.17674 -9.16435 -84.4549
rradius 73.1019
rwrist -49.3002
rhand -57.3895 5.60276
rfingers 7.12502
rthumb -29.6633 -22.045
lclavicle -6.32135e-014 1.35174e-014
lhumerus 37.0271 -55.9581 93.6592
lradius 17.8335
lwrist -6.8113
lhand -5.43648 34.3452
lfingers 7.12502
lthumb -159.626 -116.704
rfemur -28.6449 1.8509 7.76058
rtibia 34.7892
rfoot -6.21612 -20.302
rtoes -8.92982
lfemur -30.9802 8.08426 -13.8131
ltibia 24.9256
lfoot -8.71256 -12.2739
ltoes -17.5164
234
root -6.03876 18.0524 -0.346223 -158.497 74.9851 -175.291
lowerback -0.659794 -9.18579 2.55127
upperback 5.0013 -12.4462 8.66193
thorax 7.11643 -6.18193 6.84253
lowerneck -13.7318 3.65242 3.64236
upperneck 26.1142 9.06633 -14.4375
head 11.6967 3.03103 -4.64043
rclavicle 3.4191e-014 -1.74931e-014
rhumerus -4.57692 -7.67414 -85.637
rradius 70.3402
rwrist -51.3296
rhand -56.3051 4.28655
rfingers 7.12502
rthumb -28.6277 -23.5406
lclavicle 3.4191e-014 -1.74931e-014
lhumerus 34.0211 -55.9775 93.8342
lradius 17.8707
lwrist -6.07955
lhand -4.35806 36.0638
lfingers 7.12502
lthumb -158.59 -115.099
rfemur -27.5576 1.70641 7.26833
rtibia 35.3016
rfoot -6.69588 -21.1777
rtoes -4.54823
lfemur -30.1932 7.34518 -14.3247
ltibia 23.7435
lfoot -8.37396 -13.8736
ltoes -17.3321
235
root -6.02251 18.0769 -0.406446 -160.611 72.9586 -176.853
lowerback -1.46249 -8.84059 3.02221
upperback 4.97749 -12.0514 9.18137
thorax 7.53247 -5.9506 7.07241
lowerneck -13.5042 2.52336 3.05315
upperneck 26.4906 7.65967 -14.3142
head 11.6004 2.37435 -4.70924
rclavicle -1.90038e-013 5.24792e-014
rhumerus -5.65229 -6.01376 -86.5534
rradius 67.2338
rwrist -53.2428
rhand -55.3264 2.83961
rfingers 7.12502
rthumb -27.6923 -25.1416
lclavicle -1.90038e-013 5.24792e-014
lhumerus 30.0617 -55.0264 95.5958
lradius 17.5723
lwrist -6.52999
lhand -3.25646 37.9733
lfingers 7.12502
lthumb -157.532 -113.314
rfemur -26.4073 1.57289 6.95794
rtibia 35.7915
rfoot -6.55726 -22.0208
rtoes -3.12926
lfemur -29.3032 6.81225 -14.768
ltibia 22.5283
lfoot -7.73843 -15.5627
ltoes -16.0404
236
root -6.00338 18.1034 -0.464347 -162.89 70.993 -178.407
lowerback -2.04488 -8.48499 3.25583
upperback 4.95508 -11.6167 9.70137
thorax 7.87041 -5.71537 7.48121
lowerneck -13.4141 1.38546 2.3585
upperneck 27.0158 6.28659 -14.1487
head 11.6031 1.71732 -4.73619
rclavicle 1.20066e-013 -7.79236e-014
rhumerus -6.59928 -4.03498 -87.2577
rradius 64.2187
rwrist -55.7188
rhand -54.1794 1.03457
rfingers 7.12502
rthumb -26.5951 -27.1179
lclavicle 1.20066e-013 -7.79236e-014
lhumerus 26.1719 -53.5663 97.4945
lradius 17.0718
lwrist -6.98669
lhand -1.88313 39.8699
lfingers 7.12502
lthumb -156.215 -111.582
rfemur -25.0336 1.52935 6.54084
rtibia 36.2388
rfoot -6.25728 -22.7643
rtoes -2.23834
lfemur -28.1858 6.30456 -15.3433
ltibia 21.4057
lfoot -6.93017 -17.1406
ltoes -13.8329
237
root -5.98558 18.1254 -0.519765 -165.156 69.1116 -179.942
lowerback -2.53534 -8.12693 3.41563
upperback 4.90304 -11.164 10.1511
thorax 8.11516 -5.47493 7.88237
lowerneck -13.3218 0.282214 1.82329
upperneck 27.4641 4.9738 -14.1885
head 11.6068 1.08423 -4.85397
rclavicle 2.3059e-014 -1.54257e-013
rhumerus -7.25776 -2.15382 -88.1921
rradius 61.0543
rwrist -58.0939
rhand -52.4243 -1.85721
rfingers 7.12502
rthumb -24.9142 -30.2534
lclavicle 2.3059e-014 -1.54257e-013
lhumerus 23.233 -52.7562 98.0995
lradius 16.7055
lwrist -6.2157
lhand -0.612581 41.6118
lfingers 7.12502
lthumb -154.997 -110.004
rfemur -23.6351 1.49892 6.00265
rtibia 36.6423
rfoot -6.15445 -23.3077
rtoes -0.162643
lfemur -26.9836 5.94842 -16.1239
ltibia 20.3721
lfoot -6.91583 -18.4918
ltoes -14.7769
238
root -5.97162 18.1449 -0.577005 -167.185 67.1635 -181.27
lowerback -3.0234 -7.78629 3.51045
upperback 4.84918 -10.7288 10.6626
thorax 8.38345 -5.24847 8.40006
lowerneck -13.2032 -0.829658 1.28698
upperneck 27.6638 3.64539 -14.3627
head 11.519 0.435386 -5.00719
rclavicle 3.02153e-014 -6.83819e-014
rhumerus -7.3923 -0.305526 -89.1498
rradius 57.282
rwrist -60.6822
rhand -50.687 -2.60284
rfingers 7.12502
rthumb -23.2483 -31.2195
lclavicle 3.02153e-014 -6.83819e-014
lhumerus 20.6881 -51.294 99.0429
lradius 15.5066
lwrist -6.15921
lhand 1.34314 44.6147
lfingers 7.12502
lthumb -153.124 -107.276
rfemur -22.2622 1.26609 5.45943
rtibia 37.0715
rfoot -6.13548 -23.6271
rtoes 2.5438
lfemur -25.8325 5.65365 -16.9863
ltibia 19.507
lfoot -7.57878 -19.7219
ltoes -18.0064
239
root -5.94726 18.1629 -0.628862 -169.137 65.0646 -182.366
lowerback -3.4248 -7.46551 3.52607
upperback 4.80576 -10.3035 11.1325
thorax 8.61466 -5.03114 8.93821
lowerneck -13.041 -1.96789 0.824292
upperneck 27.8748 2.22852 -14.4417
head 11.4207 -0.235893 -5.14187
rclavicle 7.79236e-014 -4.45278e-014
rhumerus -7.39988 2.20385 -90.1636
rradius 53.4571
rwrist -62.7031
rhand -49.6294 -3.3452
rfingers 7.12502
rthumb -22.2333 -32.0864
lclavicle 7.79236e-014 -4.45278e-014
lhumerus 18.33 -49.9144 99.8554
lradius 14.262
lwrist -5.65025
lhand 2.73982 46.9961
lfingers 7.12502
lthumb -151.788 -105.107
rfemur -20.606 1.03958 4.97868
rtibia 37.5012
rfoot -6.28624 -23.9129
rtoes 4.95357
lfemur -24.5316 5.28227 -17.7231
ltibia 18.6858
lfoot -7.60153 -21.2338
ltoes -18.4305
